<svg width="18" height="16" viewBox="0 0 18 16" fill="none" xmlns="http://www.w3.org/2000/svg">
    <path
        d="M8.57853 0.51869C8.87486 -0.172898 9.88413 -0.172897 10.1805 0.518692L11.9294 4.60057C12.0544 4.89213 12.3369 5.09134 12.6611 5.11657L17.2008 5.46986C17.9699 5.52972 18.2818 6.46147 17.6958 6.94876L14.2371 9.82474C13.99 10.0302 13.8821 10.3526 13.9576 10.6597L15.0143 14.9599C15.1933 15.6885 14.3768 16.2644 13.7183 15.874L9.83168 13.5695C9.55407 13.4049 9.20493 13.4049 8.92732 13.5695L5.04068 15.874C4.38217 16.2644 3.56565 15.6885 3.74469 14.9599L4.8014 10.6597C4.87688 10.3526 4.76899 10.0302 4.52195 9.82474L1.06315 6.94876C0.477135 6.46147 0.78902 5.52972 1.55818 5.46986L6.0979 5.11657C6.42216 5.09134 6.70463 4.89213 6.82955 4.60057L8.57853 0.51869Z"
        fill="#FFE550" />
</svg>